<svg width="30" height="30" viewBox="0 0 25 20" fill="none" xmlns="http://www.w3.org/2000/svg">
  <path d="M24.5264 6.85207C24.7168 6.69986 25 6.84225 25 7.08283V17.1235C25 18.4247 23.9502 19.4803 22.6562 19.4803H2.34375C1.0498 19.4803 0 18.4247 0 17.1235V7.08774C0 6.84225 0.27832 6.70477 0.473633 6.85698C1.56738 7.7113 3.01758 8.79638 7.99805 12.4346C9.02832 13.1907 10.7666 14.7815 12.5 14.7717C14.2432 14.7864 16.0156 13.1613 17.0068 12.4346C21.9873 8.79638 23.4326 7.70639 24.5264 6.85207ZM12.5 13.1956C13.6328 13.2153 15.2637 11.7619 16.084 11.1629C22.5635 6.43473 23.0566 6.0223 24.5508 4.84393C24.834 4.62298 25 4.27929 25 3.91596V2.98308C25 1.68197 23.9502 0.626343 22.6562 0.626343H2.34375C1.0498 0.626343 0 1.68197 0 2.98308V3.91596C0 4.27929 0.166016 4.61807 0.449219 4.84393C1.94336 6.01739 2.43652 6.43473 8.91602 11.1629C9.73633 11.7619 11.3672 13.2153 12.5 13.1956Z" fill="black"/>
</svg>