<svg version="1.2" xmlns="http://www.w3.org/2000/svg" viewBox="0 0 43 39" width="43" height="40">
	<title>image</title>
	<style>
		.s0 { fill: #45200d } 
	</style>
	<path id="Layer" class="s0" d="m21.9 16.7c-6.6 0.2-15.5 10.6-15.3 16.9 0 2.9 2.3 4.6 6 4.5 4-0.1 6.6-2.3 9.9-2.4 3.2-0.1 5.9 1.9 9.9 1.8 3.7-0.1 5.9-1.9 5.8-4.8-0.2-6.4-9.8-16.2-16.3-16zm-12.2-0.7c-0.9-2.8-3.6-4.6-6-4-2.4 0.7-3.6 3.5-2.6 6.3 0.9 2.9 3.6 4.6 6 4 2.4-0.7 3.6-3.5 2.6-6.3zm7-1.9c2.5-0.8 3.7-4.3 2.6-7.8-1.1-3.6-4-5.8-6.6-5.1-2.5 0.8-3.7 4.2-2.6 7.8 1.1 3.5 4 5.8 6.6 5.1zm23.1-3.1c-2.4-0.5-5 1.4-5.8 4.3-0.8 2.9 0.6 5.6 3 6.1 2.4 0.5 5-1.4 5.8-4.3 0.7-2.9-0.6-5.6-3-6.1zm-12.8 2.8c2.5 0.6 5.3-1.9 6.2-5.5 0.9-3.6-0.5-7-3.1-7.6-2.6-0.6-5.3 1.9-6.2 5.5-0.9 3.6 0.5 7 3.1 7.6z"/>
</svg>