<svg  viewBox="0 0 55 48" fill="none" xmlns="http://www.w3.org/2000/svg">
<path d="M27.4778 20.7589C19.0855 20.7743 6.65481 33.6619 6.31911 41.7831C6.16791 45.4407 8.91095 47.6207 13.6593 47.612C18.8209 47.6025 22.3378 44.9678 26.4774 44.9601C30.653 44.9525 33.9621 47.5747 39.0782 47.5653C43.8266 47.5565 46.7503 45.3662 46.9014 41.7085C47.2371 33.5873 35.8701 20.7435 27.4778 20.7589ZM11.9674 19.4659C11.0184 15.8365 7.72954 13.4909 4.62189 14.226C1.51425 14.9611 -0.235091 18.4991 0.713904 22.1285C1.6629 25.7579 4.95177 28.1035 8.05942 27.3684C11.1671 26.6333 12.9164 23.0953 11.9674 19.4659V19.4659ZM21.0109 17.2716C24.316 16.4125 26.1331 12.0287 25.0699 7.48045C24.0067 2.93217 20.4655 -0.0574336 17.1604 0.801677C13.8553 1.66079 12.0382 6.04459 13.1014 10.5929C14.1646 15.1411 17.7068 18.1318 21.0109 17.2716ZM50.8762 14.1421C47.8289 13.4183 44.3466 15.7763 43.0963 19.4098C41.8471 23.0432 43.3042 26.5753 46.3516 27.2991C49.3989 28.0229 52.8812 25.6648 54.1314 22.0314C55.3806 18.3979 53.9235 14.8658 50.8762 14.1421V14.1421ZM34.234 17.2473C37.4686 18.0944 41.2575 15.0914 42.6969 10.5385C44.1363 5.98561 42.6814 1.60887 39.4468 0.760726C36.2123 -0.0874155 32.4233 2.9167 30.9839 7.46958C29.5445 12.0225 30.9994 16.4002 34.234 17.2473V17.2473Z" fill="#73594B"/>
</svg>
