<svg width="30px" height="30px" viewBox="0 0 25 26" fill="none" xmlns="http://www.w3.org/2000/svg">
  <path d="M24.2866 18.1736L18.8179 15.8169C18.5843 15.7168 18.3246 15.6957 18.078 15.7568C17.8315 15.8179 17.6113 15.9579 17.4507 16.1557L15.0288 19.1311C11.2279 17.3291 8.16904 14.2532 6.37695 10.4313L9.33594 7.99596C9.53305 7.83476 9.67256 7.61337 9.73335 7.36531C9.79414 7.11726 9.7729 6.85603 9.67285 6.6212L7.3291 1.12213C7.21929 0.868985 7.02508 0.662297 6.77996 0.537711C6.53483 0.413124 6.25416 0.378448 5.98633 0.439661L0.908203 1.61803C0.649985 1.67799 0.419602 1.82419 0.254656 2.03276C0.0897096 2.24134 -5.94829e-05 2.49997 2.95713e-08 2.76645C2.95713e-08 15.3603 10.1514 25.5483 22.6562 25.5483C22.9213 25.5485 23.1787 25.4582 23.3862 25.2924C23.5937 25.1265 23.7392 24.8948 23.7988 24.635L24.9707 19.5288C25.0312 19.2582 24.996 18.9748 24.8711 18.7275C24.7463 18.4801 24.5396 18.2843 24.2866 18.1736Z" fill="black"/>
</svg>